<svg xmlns="http://www.w3.org/2000/svg" width="1024" height="1024" viewBox="0 0 1024 1024"><g transform="translate(366,142) scale(2.8)"><path d="M58 4 L58 29 L80 19 L94 57 L84 89 L56 113 L24 100 L9 72 L18 43 Z M38 43 L79 43 L73 55 L49 55 L46 63 L68 63 L62 75 L43 75 L40 84 L67 84 L60 96 L26 96 Z" fill="#f07842" fill-rule="evenodd"/></g><g transform="translate(167,568) scale(2.5)"><path transform="translate(0,0)" d="M0 0 H44 L38 12 H13 V26 H36 L30 38 H13 V52 H44 L38 64 H0 Z" fill="#f5f3ef" fill-rule="evenodd"/><path transform="translate(55,0)" d="M0 64 V0 H13 L25 26 L37 0 H50 V64 H37 V25 L25 49 L13 25 V64 Z" fill="#f5f3ef" fill-rule="evenodd"/><path transform="translate(116,0)" d="M0 0 H32 L44 12 V26 L38 32 L46 40 V52 L34 64 H0 Z M13 12 V26 H28 L31 23 V16 L27 12 Z M13 38 V52 H29 L33 48 V42 L29 38 Z" fill="#f5f3ef" fill-rule="evenodd"/><path transform="translate(173,0)" d="M0 0 H44 L38 12 H13 V26 H36 L30 38 H13 V52 H44 L38 64 H0 Z" fill="#f5f3ef" fill-rule="evenodd"/><path transform="translate(228,0)" d="M0 64 V0 H32 L44 12 V29 L33 40 L48 64 H32 L17 40 H13 V64 Z M13 12 V28 H27 L31 24 V16 L27 12 Z" fill="#f5f3ef" fill-rule="evenodd"/></g></svg>